<?xml version="1.0" encoding="utf-8"?>
<!-- Generator: Adobe Illustrator 16.0.0, SVG Export Plug-In . SVG Version: 6.00 Build 0)  -->
<!DOCTYPE svg PUBLIC "-//W3C//DTD SVG 1.0//EN" "http://www.w3.org/TR/2001/REC-SVG-20010904/DTD/svg10.dtd">
<svg version="1.0" id="Layer_1" xmlns="http://www.w3.org/2000/svg" xmlns:xlink="http://www.w3.org/1999/xlink" x="0px" y="0px"
	 width="100px" height="100px" viewBox="0 0 100 100" enable-background="new 0 0 100 100" xml:space="preserve">
<path fill="none" stroke="#000000" stroke-width="2" stroke-linecap="round" stroke-linejoin="round" stroke-miterlimit="10" d="
	M60.807,34.977c3.451,1.446,6.561,3.563,9.158,6.196c5.111,5.178,8.271,12.328,8.271,20.229C78.235,77.193,65.593,90,50.002,90
	c-15.599,0-28.237-12.807-28.237-28.598c0-7.901,3.164-15.051,8.271-20.229c5.514-5.583,8.271-12.904,8.271-20.226
	c0-3.878-0.772-7.575-2.153-10.947c11.215,7.594,14.235,22.963,6.741,34.324c-0.705,1.07-1.042,2.28-1.038,3.479
	c0.005,2.011,0.963,3.982,2.74,5.185c2.831,1.916,6.661,1.142,8.553-1.726c0.915-1.387,1.348-2.95,1.362-4.5
	c0.022-2.688-1.24-5.337-3.612-6.942c6.992,2.935,11.057,9.983,10.629,17.227C67.017,50.695,66.786,41.037,60.807,34.977z"/>
<path fill="none" stroke="#000000" stroke-width="2" stroke-linecap="round" stroke-linejoin="round" stroke-miterlimit="10" d="
	M59.831,21.242c2.455-3.719,1.466-8.754-2.207-11.242c-0.001,2.075-0.783,4.151-2.344,5.732c-3.124,3.165-3.124,8.298,0,11.462
	c0.817,0.827,1.813,1.469,2.918,1.874C57.753,26.439,58.25,23.638,59.831,21.242z"/>
</svg>
